<svg xmlns="http://www.w3.org/2000/svg" viewBox="0 0 24 24" height="24" width="24"><g><path d="M17.58 13.29a4.83 4.83 0 0 1 1.94 -3.87 0.5 0.5 0 0 0 0.07 -0.72A5.12 5.12 0 0 0 16 7c-1.69 -0.17 -3.3 1 -4.16 1S9.58 7 8.18 7a5.33 5.33 0 0 0 -4.51 2.76c-1.92 3.34 -0.49 8.28 1.38 11 0.91 1.33 2 2.81 3.44 2.76s1.9 -0.89 3.57 -0.89 2.14 0.89 3.6 0.86 2.42 -1.37 3.34 -2.69a12.5 12.5 0 0 0 1.37 -2.68 0.51 0.51 0 0 0 -0.24 -0.61 4.75 4.75 0 0 1 -2.55 -4.22Z" fill="#000000" stroke-width="1"></path><path d="M15 4.17a5.23 5.23 0 0 0 1.22 -3.09 0.52 0.52 0 0 0 -0.18 -0.4 0.5 0.5 0 0 0 -0.42 -0.11 5.4 5.4 0 0 0 -2.81 1.67 5 5 0 0 0 -1.25 3.05 0.51 0.51 0 0 0 0.16 0.37 0.5 0.5 0 0 0 0.39 0.14A4.54 4.54 0 0 0 15 4.17Z" fill="#000000" stroke-width="1"></path></g></svg>