<svg width="2500" height="988" viewBox="0 0 2500 988" fill="none" xmlns="http://www.w3.org/2000/svg">
<ellipse cx="2272" cy="44.129" rx="44.129" ry="44.129" fill="#FFA241"/>
<rect x="2135.94" y="161.806" width="272.129" height="88.258" rx="44.129" fill="url(#paint0_linear_12712_82399)"/>
<circle cx="2180.06" cy="205.935" r="44.129" fill="#FFA241"/>
<path d="M2500 367.742C2500 392.114 2480.24 411.871 2455.87 411.871L2044 411.871L2044 323.613L2455.87 323.613C2480.24 323.613 2500 343.37 2500 367.742V367.742Z" fill="url(#paint1_linear_12712_82399)"/>
<circle cx="2455.87" cy="367.742" r="44.129" fill="#FFA241"/>
<path d="M165.4 847.1C139.193 847.1 115.827 842.664 95.3 833.79C75.2402 825.31 57.4651 812.215 43.42 795.57C29.42 778.977 18.68 758.884 11.2 735.29C3.72005 711.697 -0.0132977 685.394 3.55871e-05 656.38C3.55871e-05 627.427 3.73338 601.124 11.2 577.47C18.6667 553.817 29.4067 533.724 43.42 517.19C57.4977 500.588 75.2645 487.509 95.3 479C115.84 470.13 139.3 465.69 165.4 465.69C201.853 465.69 231.777 473.884 255.17 490.27C278.563 506.657 295.627 528.387 306.36 555.46L243.29 584.88C238.17 568.02 229.16 554.64 216.29 544.53C203.42 534.42 186.46 529.45 165.43 529.45C137.383 529.45 116.223 538.187 101.95 555.66C87.6767 573.134 80.5534 595.867 80.58 623.86V688.86C80.58 716.86 87.7034 739.594 101.95 757.06C116.197 774.527 137.357 783.264 165.43 783.27C187.89 783.27 205.71 777.81 219.09 766.82C232.47 755.83 243.09 741.22 250.97 722.99L309.13 753.85C296.97 783.85 278.743 806.9 254.45 823C230.157 839.1 200.473 847.134 165.4 847.1Z" fill="#1C1F29"/>
<path d="M591.77 838.71L467.67 474.12H543.37L598.8 640.27L635.94 767.85H640.17L677.31 640.27L734.1 474.12H807.01L681.5 838.71H591.77Z" fill="#1C1F29"/>
<path d="M1111.19 838.71C1091.12 838.71 1075.69 832.977 1064.9 821.51C1054.12 810.04 1047.63 795.43 1045.31 777.68H1041.83C1034.8 800.62 1021.94 817.914 1003.26 829.56C984.58 841.207 961.913 847.053 935.26 847.1C897.38 847.1 868.276 837.273 847.949 817.62C827.609 797.96 817.439 771.62 817.439 738.36C817.439 701.907 830.636 674.557 857.03 656.31C883.423 638.063 922.09 628.94 973.03 628.94H1038.9V598.08C1038.9 575.62 1032.83 558.327 1020.68 546.2C1008.53 534.073 989.619 528.007 963.939 528C942.439 528 924.94 532.71 911.31 542C897.6 551.52 885.929 563.681 876.979 577.77L831.38 536.4C843.526 515.853 860.589 498.9 882.569 485.54C904.549 472.18 933.29 465.513 968.79 465.54C1016.03 465.54 1052.25 476.54 1077.46 498.54C1102.67 520.54 1115.3 552.103 1115.35 593.23V776.23H1153.92V838.62H1111.19V838.76V838.71ZM956.979 788.94C980.799 788.94 1000.44 783.687 1015.89 773.18C1031.34 762.673 1039.06 748.54 1039.03 730.78V678.22H974.5C921.673 678.22 895.256 694.58 895.25 727.3V739.93C895.25 756.31 900.733 768.577 911.699 776.73C922.666 784.883 937.759 788.953 956.979 788.94Z" fill="#1C1F29"/>
<path d="M1275.02 838.71C1248.87 838.71 1229.34 832.043 1216.45 818.71C1203.56 805.377 1197.14 786.787 1197.2 762.94V317.79H1273.65V776.25H1324.17V838.64L1275.02 838.71Z" fill="#1C1F29"/>
<path d="M1692.24 873C1692.24 910.893 1677.75 939.407 1648.76 958.54C1619.77 977.673 1572.56 987.253 1507.11 987.28C1477.21 987.28 1451.84 985.3 1431 981.34C1410.16 977.38 1393.09 971.647 1379.8 964.14C1366.49 956.63 1356.8 947.55 1350.72 936.76C1344.64 925.97 1341.57 913.62 1341.57 899.63C1341.57 879.56 1347.04 863.86 1358.03 852.63C1369.02 841.4 1384.31 833.72 1403.97 829.49V821.78C1376.39 812.9 1362.6 794.193 1362.6 765.66C1362.6 746.96 1368.88 732.66 1381.51 722.52C1394.14 712.38 1409.29 705.32 1427.11 701.16V698.36C1405.61 688.053 1389.14 673.673 1377.69 655.22C1366.24 636.767 1360.51 615.173 1360.5 590.44C1360.5 553.027 1373.02 522.877 1398.05 499.99C1423.08 477.103 1458.97 465.657 1505.7 465.65C1531.43 465.65 1553.39 469.383 1571.57 476.85V463C1571.57 446.61 1575.46 433.92 1583.11 424.77C1590.76 415.62 1602.84 411.12 1619.22 411.12H1675.33V472.83H1600.99V491.53C1617.01 501.926 1630.07 516.297 1638.88 533.24C1647.75 550.307 1652.19 569.353 1652.19 590.38C1652.19 627.307 1639.56 657.113 1614.31 679.8C1589.06 702.487 1553.06 713.82 1506.31 713.8C1488.56 713.8 1472.68 711.933 1458.67 708.2C1449.73 711.256 1441.41 715.878 1434.09 721.85C1427.09 727.72 1423.58 735.3 1423.58 744.65C1423.58 754.48 1428.02 761.51 1436.89 765.65C1445.76 769.79 1458.39 771.93 1474.78 771.93H1564.5C1609.35 771.93 1641.84 780.93 1661.98 798.93C1682.12 816.93 1692.21 841.62 1692.24 873ZM1620.7 881.4C1620.7 868.77 1615.92 858.74 1606.3 851.23C1596.68 843.72 1579.3 840.03 1554.08 840.03H1430.66C1413.8 849.863 1405.38 863.863 1405.4 882.03C1405.4 897.03 1411.34 909.03 1423.29 918.14C1435.24 927.25 1455.44 931.8 1483.97 931.8H1531.62C1591.01 931.934 1620.71 915.147 1620.7 881.44V881.4ZM1506.36 658.4C1528.82 658.4 1546.23 653.4 1558.58 643.32C1570.93 633.24 1577.15 617.72 1577.15 596.69V582.69C1577.15 561.67 1570.96 546.13 1558.58 536.07C1546.2 526.01 1528.79 520.98 1506.36 520.98C1483.9 520.98 1466.49 526.01 1454.14 536.07C1441.72 546.07 1435.57 561.67 1435.57 582.69V596.69C1435.57 617.717 1441.76 633.26 1454.14 643.32C1466.56 653.51 1483.97 658.49 1506.36 658.49V658.4Z" fill="#1C1F29"/>
<path d="M1856.96 847.1C1831.7 847.1 1808.67 842.664 1787.88 833.79C1767.56 825.258 1749.46 812.183 1734.98 795.57C1720.5 778.977 1709.28 758.884 1701.32 735.29C1693.36 711.697 1689.38 685.394 1689.38 656.38C1689.38 627.427 1693.36 601.124 1701.32 577.47C1709.28 553.817 1720.5 533.724 1734.98 517.19C1749.48 500.59 1767.57 487.515 1787.88 478.96C1808.7 470.087 1831.73 465.65 1856.96 465.65C1882.19 465.65 1905.22 470.1 1926.04 479C1946.38 487.55 1964.51 500.625 1979.04 517.23C1993.51 533.817 2004.72 553.91 2012.69 577.51C2020.66 601.11 2024.64 627.414 2024.64 656.42C2024.64 685.427 2020.66 711.73 2012.69 735.33C2004.72 758.93 1993.51 779.024 1979.04 795.61C1964.52 812.226 1946.39 825.299 1926.04 833.83C1905.22 842.684 1882.19 847.107 1856.96 847.1ZM1856.96 783.28C1883.11 783.28 1904.2 775.28 1920.04 759.28C1935.88 743.28 1943.86 719.21 1943.86 687.13V625.73C1943.86 593.644 1935.92 569.59 1920.04 553.57C1904.16 537.55 1883.13 529.55 1856.96 529.57C1830.75 529.57 1809.72 537.57 1793.89 553.57C1778.06 569.57 1770.11 593.624 1770.06 625.73V687.1C1770.06 719.18 1778 743.23 1793.89 759.25C1809.78 775.27 1830.8 783.28 1856.96 783.28V783.28Z" fill="#1C1F29"/>
<path d="M350.5 472.89H427.16V838.71H350.5V472.89Z" fill="#1C1F29"/>
<path d="M388.901 411.18C401.148 411 412.833 406.009 421.431 397.285C430.028 388.561 434.848 376.804 434.848 364.555C434.848 352.306 430.028 340.549 421.431 331.825C412.833 323.1 401.148 318.109 388.901 317.93V317.93C382.72 317.839 376.584 318.978 370.848 321.281C365.111 323.583 359.89 327.003 355.488 331.342C351.085 335.68 347.589 340.851 345.203 346.553C342.817 352.254 341.588 358.374 341.588 364.555C341.588 370.736 342.817 376.855 345.203 382.557C347.589 388.259 351.085 393.429 355.488 397.768C359.89 402.106 365.111 405.526 370.848 407.829C376.584 410.131 382.72 411.27 388.901 411.18Z" fill="#1C1F29"/>
<defs>
<linearGradient id="paint0_linear_12712_82399" x1="2408.06" y1="204.413" x2="2094.97" y2="204.413" gradientUnits="userSpaceOnUse">
<stop stop-color="#FFA241"/>
<stop offset="1" stop-color="#FFA241" stop-opacity="0"/>
</linearGradient>
<linearGradient id="paint1_linear_12712_82399" x1="2044" y1="369.264" x2="2568.65" y2="369.264" gradientUnits="userSpaceOnUse">
<stop stop-color="#FFA241"/>
<stop offset="1" stop-color="#FFA241" stop-opacity="0"/>
</linearGradient>
</defs>
</svg>
